<?xml version="1.0" encoding="iso-8859-1"?>
<!-- Generator: Adobe Illustrator 17.1.0, SVG Export Plug-In . SVG Version: 6.00 Build 0)  -->
<!DOCTYPE svg PUBLIC "-//W3C//DTD SVG 1.1//EN" "http://www.w3.org/Graphics/SVG/1.1/DTD/svg11.dtd">
<svg version="1.1" id="Capa_1" xmlns="http://www.w3.org/2000/svg" xmlns:xlink="http://www.w3.org/1999/xlink" x="0px" y="0px"
	 viewBox="0 0 403.148 403.148" style="enable-background:new 0 0 403.148 403.148;" xml:space="preserve">
<g>
	<path d="M380.08,390.613l-77.915-140.937l15.658-6.25c6.007-2.397,11.047-9.331,11.476-15.785l1.947-29.349
		c0.326-4.912,2.817-12.583,5.44-16.75l15.669-24.883c3.444-5.473,3.444-14.047-0.001-19.52l-15.667-24.883
		c-2.624-4.167-5.115-11.838-5.441-16.75l-1.947-29.349c-0.429-6.454-5.469-13.388-11.476-15.785l-27.328-10.906
		c-4.57-1.824-11.09-6.564-14.237-10.35L257.452,6.489C254.227,2.608,248.319,0,242.753,0c-1.355,0-2.653,0.155-3.857,0.462
		l-28.522,7.26c-2.272,0.579-5.479,0.911-8.799,0.911c-3.319,0-6.526-0.332-8.799-0.911l-28.523-7.26
		C163.048,0.155,161.75,0,160.395,0c-5.566,0-11.474,2.608-14.699,6.489L126.89,29.117c-3.148,3.785-9.667,8.525-14.237,10.35
		L85.325,50.374c-6.007,2.397-11.047,9.331-11.476,15.785l-1.946,29.349c-0.326,4.913-2.817,12.583-5.44,16.749l-15.669,24.885
		c-3.445,5.472-3.445,14.045,0,19.518l15.667,24.884c2.624,4.167,5.115,11.838,5.441,16.75l1.947,29.348
		c0.429,6.454,5.469,13.388,11.476,15.785l15.657,6.249L23.069,390.613c-1.727,3.122-1.898,6.303-0.469,8.725
		c1.429,2.422,4.294,3.811,7.862,3.811h87.793c6.609,0,14.293-4.531,17.491-10.316l59.259-107.193
		c1.943-0.301,4.224-0.47,6.568-0.47c2.345,0,4.625,0.169,6.568,0.47l59.259,107.193c3.198,5.785,10.882,10.316,17.491,10.316
		h87.794c3.567,0,6.434-1.389,7.861-3.811C381.977,396.916,381.806,393.736,380.08,390.613z M201.574,50.771
		c53.09,0,96.128,43.039,96.128,96.129c0,53.092-43.038,96.129-96.128,96.129c-53.091,0-96.129-43.037-96.129-96.129
		C105.445,93.811,148.483,50.771,201.574,50.771z"/>
	<path d="M183.966,171.854c-5.812,0-10.523,4.712-10.523,10.523c0,5.811,4.712,10.523,10.523,10.523h35.218
		c5.812,0,10.523-4.712,10.523-10.523c0-5.812-4.712-10.523-10.523-10.523h-7.086v-66.932c0-4.178-2.268-7.938-5.917-9.812
		c-3.65-1.875-8.025-1.527-11.424,0.91l-16.925,12.143c-4.723,3.388-5.804,9.962-2.416,14.684c3.387,4.722,9.964,5.805,14.684,2.416
		l0.951-0.682v47.272H183.966z"/>
</g>
<g>
</g>
<g>
</g>
<g>
</g>
<g>
</g>
<g>
</g>
<g>
</g>
<g>
</g>
<g>
</g>
<g>
</g>
<g>
</g>
<g>
</g>
<g>
</g>
<g>
</g>
<g>
</g>
<g>
</g>
</svg>
