<svg id="Layer_1" data-name="Layer 1" xmlns="http://www.w3.org/2000/svg" xmlns:xlink="http://www.w3.org/1999/xlink" viewBox="0 0 31.52 27.08"><defs><style>.cls-1{stroke:#75592b;stroke-linecap:round;stroke-linejoin:round;stroke-width:2px;fill:url(#linear-gradient);}.cls-2{fill:url(#linear-gradient-2);}.cls-3{fill:#fff0c0;}.cls-4{fill:#75592b;}.cls-5{fill:url(#linear-gradient-3);}.cls-6{fill:url(#linear-gradient-4);}</style><linearGradient id="linear-gradient" x1="11.62" y1="20.38" x2="19.28" y2="17.59" gradientUnits="userSpaceOnUse"><stop offset="0" stop-color="#e4d7d6"/><stop offset="0.57" stop-color="#a08019"/><stop offset="0.57" stop-color="#69530f"/></linearGradient><linearGradient id="linear-gradient-2" x1="12.7" y1="17.75" x2="18.68" y2="15.57" xlink:href="#linear-gradient"/><linearGradient id="linear-gradient-3" x1="4.39" y1="18.05" x2="30.14" y2="8.68" xlink:href="#linear-gradient"/><linearGradient id="linear-gradient-4" x1="7.04" y1="29.65" x2="24.35" y2="23.35" xlink:href="#linear-gradient"/></defs><path class="cls-1" d="M20.24,20.22l-.16.17a1,1,0,0,1-.59-.26c-1.19-1.17-2.36-2.36-3.58-3.59l-.38.36c-1.08,1.08-2.14,2.15-3.22,3.21a1.16,1.16,0,0,1-.59.28l-.16-.17,4.34-4.49Z" transform="translate(-0.21 -2.37)"/><polygon class="cls-2" points="12.3 16.66 15.69 13.15 19.08 16.66 16.84 18.97 15.69 20.16 12.3 16.66"/><path class="cls-3" d="M15.9,16.52,18.33,19l-1.77,1.83-.66.69-.66-.69L13.47,19l2.43-2.51m0-2L11.56,19l.16.17,2.53,2.62,1.65,1.7,1.65-1.7,2.53-2.62.16-.17L15.9,14.54Z" transform="translate(-0.21 -2.37)"/><path class="cls-4" d="M15.9,24.07a.59.59,0,0,1-.4-.16l-4.34-4.5a.56.56,0,0,1,0-.76l4.34-4.49a.56.56,0,0,1,.4-.17h0a.52.52,0,0,1,.39.17l4.34,4.49a.56.56,0,0,1,0,.76l-.16.17-4.19,4.33A.55.55,0,0,1,15.9,24.07Zm-3.58-5,3.58,3.7L19.48,19l-3.58-3.7Z" transform="translate(-0.21 -2.37)"/><path class="cls-5" d="M5.76,20.5q-1.19-4.62-2.38-9.22a.68.68,0,0,0-.66-.51H2.47a1,1,0,1,1,1-1,.85.85,0,0,1,0,.23.68.68,0,0,0,.44.82L8,12.3l0,.1a2.89,2.89,0,0,0,0,2.47,2.78,2.78,0,0,0,1.92,1.46,4.71,4.71,0,0,0,1,.11,2.61,2.61,0,0,0,.4,0,2.31,2.31,0,0,0,2.05-1.58c.24-.64.44-1.23.61-1.83a1.2,1.2,0,0,0-.3-1.11c-.35-.36-.73-.72-1.12-1.09l2.94-4.42a.68.68,0,0,0-.16-.93,1,1,0,1,1,1.63-.83,1,1,0,0,1-.43.83.69.69,0,0,0-.17.94c1,1.47,2,2.93,2.94,4.4l0,0c-.33.32-.65.64-1,.94a1.24,1.24,0,0,0-.34,1.47c.1.28.2.58.3.87s.14.43.22.64A2.6,2.6,0,0,0,21,16.48a3.37,3.37,0,0,0,1.29-.25,2.78,2.78,0,0,0,1.59-1.51,2.75,2.75,0,0,0,0-2.16c0-.09-.07-.17-.11-.25l.38-.14L28,10.79a.7.7,0,0,0,.44-.81.54.54,0,0,1,0-.17,1,1,0,1,1,1,1l-.23,0a.41.41,0,0,0-.16,0,.7.7,0,0,0-.37.11.65.65,0,0,0-.3.45l0,.11-.16.61c-.73,2.81-1.46,5.61-2.18,8.42H20.31L16.4,16.43a.69.69,0,0,0-1,0L11.5,20.48H5.76Z" transform="translate(-0.21 -2.37)"/><path class="cls-3" d="M15.9,4.3a.34.34,0,0,1,.34.33.32.32,0,0,1-.14.27l-.2.18-.2-.18a.32.32,0,0,1-.14-.27.34.34,0,0,1,.34-.33m0,2.69c.83,1.24,1.66,2.47,2.49,3.72l-.59.55a1.91,1.91,0,0,0-.53,2.21c.1.28.2.56.29.85l.23.66A3.31,3.31,0,0,0,21,17.17a4.19,4.19,0,0,0,1.55-.3,3.5,3.5,0,0,0,2-1.89,3.37,3.37,0,0,0,.13-2.26l3-1.06-.1.38c-.66,2.54-1.35,5.16-2,7.77H20.6L16.89,16a1.36,1.36,0,0,0-1-.42,1.34,1.34,0,0,0-1,.42L11.2,19.8H6.29l-2.1-8.15,3,1.05a3.42,3.42,0,0,0,.2,2.46A3.47,3.47,0,0,0,9.72,17a5.57,5.57,0,0,0,1.16.13l.46,0a3,3,0,0,0,2.63-2c.24-.65.45-1.26.63-1.89a1.89,1.89,0,0,0-.45-1.76l-.74-.72,1.21-1.82L15.89,7M2.47,9.43a.34.34,0,0,1,.33.34v.05h0a1.17,1.17,0,0,0,0,.26h0l-.25,0a.34.34,0,1,1,0-.67m27,0a.34.34,0,0,1,.34.34.34.34,0,0,1-.34.34h-.07l-.22,0c0-.08,0-.17,0-.26v0a.34.34,0,0,1,.33-.34M2.8,9.82h0m13.1-6.9a1.71,1.71,0,0,0-1,3.09L11.63,10.9c.53.51,1,1,1.53,1.49a.57.57,0,0,1,.12.43c-.18.6-.38,1.19-.6,1.78a1.63,1.63,0,0,1-1.46,1.14l-.34,0a3.94,3.94,0,0,1-.84-.1,2,2,0,0,1-1.42-3c.11-.25.24-.5.37-.78L4.13,10.18a1.84,1.84,0,0,0,0-.41,1.71,1.71,0,1,0-1.71,1.7,1.1,1.1,0,0,0,.25,0c.8,3.11,1.61,6.22,2.41,9.33.07.29.18.4.49.4h0c2.12,0,4.25,0,6.37,0h.09L12,21l4-4.09,4,4.09-.15.16h.06c2.12,0,4.24,0,6.37,0h0c.32,0,.44-.11.51-.42.78-3.05,1.57-6.08,2.36-9.12a1,1,0,0,0,0-.17,1.74,1.74,0,0,0,.39,0,1.72,1.72,0,1,0-1.71-1.71,1.19,1.19,0,0,0,0,.33l-5,1.78c.17.35.31.62.44.91a2.06,2.06,0,0,1-1.19,2.77,3.09,3.09,0,0,1-1,.19,1.94,1.94,0,0,1-1.94-1.27c-.18-.51-.33-1-.52-1.53a.54.54,0,0,1,.16-.7c.49-.45,1-.93,1.44-1.4C19.06,9.26,18,7.64,16.9,6a1.68,1.68,0,0,0,.72-1.39A1.72,1.72,0,0,0,15.9,2.92Z" transform="translate(-0.21 -2.37)"/><path class="cls-4" d="M5.62,21.73a1,1,0,0,1-1-.81L2.29,12A2.26,2.26,0,1,1,4.73,9.77v0l3.73,1.33.72.26a.52.52,0,0,1,.32.31.54.54,0,0,1,0,.45l-.12.23c-.09.18-.17.35-.25.53a1.58,1.58,0,0,0,0,1.4,1.51,1.51,0,0,0,1.09.8,3.1,3.1,0,0,0,1,.07,1.1,1.1,0,0,0,1-.78c.22-.59.4-1.13.56-1.67-.35-.37-.72-.71-1.09-1.07l-.39-.37a.55.55,0,0,1-.07-.7l3-4.51a2.26,2.26,0,1,1,3.44,0c1,1.49,2,3,3,4.48a.55.55,0,0,1-.07.7l-.43.42c-.34.33-.68.67-1,1l0,0,0,.06c.12.31.22.62.32.93l.21.62a1.31,1.31,0,0,0,.68.76,2.11,2.11,0,0,0,1.58,0,1.56,1.56,0,0,0,.9-.84,1.52,1.52,0,0,0,0-1.2c-.08-.19-.17-.38-.28-.59l-.14-.29a.54.54,0,0,1,0-.45.61.61,0,0,1,.32-.31L23.73,11c1.15-.42,2.31-.83,3.48-1.24a2.26,2.26,0,1,1,2.28,2.3l-.08.31c-.74,2.84-1.48,5.67-2.2,8.51a1,1,0,0,1-1.08.84c-2.11,0-4.24,0-6.37,0a.44.44,0,0,1-.18,0,.52.52,0,0,1-.39-.38.44.44,0,0,1,0-.23L15.9,17.7l-3.26,3.38a.53.53,0,0,1,0,.25.54.54,0,0,1-.44.37H12c-2.12,0-4.24,0-6.37,0Zm14.09-.57h0Zm.54-.54h5.89q1.09-4.26,2.2-8.51l.16-.61,0-.13a.63.63,0,0,1,.24-.36.54.54,0,0,1,.43-.07,1.09,1.09,0,0,0,.26,0A1.17,1.17,0,1,0,28.3,9.81a1,1,0,0,0,0,.2.54.54,0,0,1-.35.65L24.1,12l-.53.19c.06.13.12.25.17.38a2.61,2.61,0,0,1,0,2.05,2.71,2.71,0,0,1-1.52,1.45,3.24,3.24,0,0,1-2.43,0,2.37,2.37,0,0,1-1.26-1.39c-.08-.22-.15-.43-.22-.64s-.2-.59-.31-.89a1.08,1.08,0,0,1,.31-1.3c.34-.31.67-.63,1-1l.11-.1c-1-1.51-2-3-3-4.49a.57.57,0,0,1,.14-.76,1.14,1.14,0,0,0,.49-.94,1.17,1.17,0,0,0-2.33,0,1.13,1.13,0,0,0,.48.94.56.56,0,0,1,.13.75l-3,4.5.06.06c.4.38.78.75,1.15,1.13a1.05,1.05,0,0,1,.26,1c-.17.6-.37,1.19-.61,1.82a2.19,2.19,0,0,1-1.93,1.5,4.11,4.11,0,0,1-1.36-.1,2.55,2.55,0,0,1-1.82-1.38,2.72,2.72,0,0,1,0-2.36c0-.07.07-.15.11-.23l-.14,0L3.94,10.7A.55.55,0,0,1,3.6,10a1.12,1.12,0,0,0,0-.27,1.16,1.16,0,1,0-1.16,1.16l.14,0a.57.57,0,0,1,.64.41l2.41,9.31h5.9l3.95-4.09a.56.56,0,0,1,.79,0Zm-7.49-7.85h0Z" transform="translate(-0.21 -2.37)"/><path class="cls-6" d="M6.52,28.22C6.28,27.14,6.08,24.89,8.3,24l.06,0a2.73,2.73,0,0,1,.72-.2,9.78,9.78,0,0,1,1.3-.08h11a8.91,8.91,0,0,1,1.27.08,2.58,2.58,0,0,1,.74.2l.08,0c2.21.9,2,3.15,1.77,4.22Z" transform="translate(-0.21 -2.37)"/><path class="cls-3" d="M21.42,24.38a7.84,7.84,0,0,1,1.17.07h0a2.22,2.22,0,0,1,.55.16l.06,0a2.49,2.49,0,0,1,1.46,2.89H7.09a2.51,2.51,0,0,1,1.45-2.89l.08,0a2,2,0,0,1,.55-.16h0a7.68,7.68,0,0,1,1.16-.07H21.42m0-1.37H10.37A9,9,0,0,0,9,23.09a3.34,3.34,0,0,0-1,.27c-2.81,1.14-2.43,4.06-2.15,5.16a.51.51,0,0,0,.5.39h19a.51.51,0,0,0,.5-.39c.27-1.1.65-4-2.15-5.16a3.42,3.42,0,0,0-1-.27A8.86,8.86,0,0,0,21.42,23Z" transform="translate(-0.21 -2.37)"/><path class="cls-4" d="M25.41,29.45h-19a1.05,1.05,0,0,1-1-.8c-.52-2.1-.15-4.73,2.48-5.8l.08,0a4,4,0,0,1,1-.28,10.14,10.14,0,0,1,1.45-.08H21.42a9,9,0,0,1,1.47.09,3.67,3.67,0,0,1,1,.27l.07,0c2.63,1.07,3,3.69,2.48,5.8A1,1,0,0,1,25.41,29.45Zm-4-5.89H10.37a9.84,9.84,0,0,0-1.29.07,2.69,2.69,0,0,0-.77.22l-.07,0c-2.42,1-2.08,3.49-1.82,4.52l19,0c.25-1.06.56-3.52-1.84-4.49l-.07,0a2.74,2.74,0,0,0-.75-.22A10.2,10.2,0,0,0,21.42,23.56Zm4,4.8Z" transform="translate(-0.21 -2.37)"/></svg>